<?xml version="1.0" encoding="utf-8"?>
<!-- Generator: Adobe Illustrator 25.2.3, SVG Export Plug-In . SVG Version: 6.00 Build 0)  -->
<svg version="1.1" id="Layer_1" xmlns="http://www.w3.org/2000/svg" xmlns:xlink="http://www.w3.org/1999/xlink" x="0px" y="0px"
	 viewBox="0 0 40 40" style="enable-background:new 0 0 40 40;" xml:space="preserve">
<style type="text/css">
	.st0{fill:#DA0F47;}
</style>
<g>
	<g>
		<path class="st0" d="M19.8,31.4c-6.3,0-11.4-5.1-11.4-11.4S13.5,8.6,19.8,8.6c3.8,0,7.4,1.9,9.5,5.1l-0.8,0.6
			c-1.9-2.9-5.2-4.7-8.7-4.7C14.1,9.6,9.4,14.3,9.4,20s4.7,10.4,10.4,10.4V31.4z"/>
	</g>
	<g>
		<polygon class="st0" points="18.5,19.2 17,19.2 17,17.6 15.3,17.6 15.3,19.2 13.7,19.2 13.7,20.8 15.3,20.8 15.3,22.4 17,22.4 
			17,20.8 18.5,20.8 		"/>
	</g>
	<g>
		<path class="st0" d="M28,30.9h-3.8c-1,0-1.8-0.8-1.8-1.8V18.3c0-1,0.8-1.8,1.8-1.8H28c1,0,1.8,0.8,1.8,1.8v10.8
			C29.8,30.1,29,30.9,28,30.9z M24.2,17.6c-0.4,0-0.8,0.3-0.8,0.8v10.8c0,0.4,0.3,0.8,0.8,0.8H28c0.4,0,0.8-0.3,0.8-0.8V18.3
			c0-0.4-0.3-0.8-0.8-0.8H24.2z"/>
	</g>
	<g>
		<circle class="st0" cx="26.1" cy="28.2" r="0.7"/>
	</g>
	<g>
		<path class="st0" d="M20,39.5C9.3,39.5,0.5,30.7,0.5,20S9.3,0.5,20,0.5S39.5,9.3,39.5,20S30.7,39.5,20,39.5z M20,1.5
			C9.8,1.5,1.5,9.8,1.5,20S9.8,38.5,20,38.5S38.5,30.2,38.5,20S30.2,1.5,20,1.5z"/>
	</g>
</g>
</svg>
