<?xml version="1.0" encoding="utf-8"?>
<!-- Generator: Adobe Illustrator 25.2.3, SVG Export Plug-In . SVG Version: 6.00 Build 0)  -->
<svg version="1.1" id="Layer_1" xmlns="http://www.w3.org/2000/svg" xmlns:xlink="http://www.w3.org/1999/xlink" x="0px" y="0px"
	 viewBox="0 0 40 40" style="enable-background:new 0 0 40 40;" xml:space="preserve">
<style type="text/css">
	.st0{fill:#DA0F47;}
</style>
<g>
	<g>
		<g>
			<path class="st0" d="M19.5,31.8c-6.4,0-11.6-5.2-11.6-11.6S13.1,8.6,19.5,8.6c0.9,0,1.7,0.1,2.6,0.3l-0.2,1
				c-0.8-0.2-1.6-0.3-2.4-0.3c-5.8,0-10.6,4.8-10.6,10.6c0,5.8,4.8,10.6,10.6,10.6s10.6-4.8,10.6-10.6c0-1.1-0.2-2.2-0.5-3.2l1-0.3
				c0.4,1.1,0.6,2.3,0.6,3.6C31.1,26.6,25.9,31.8,19.5,31.8z"/>
		</g>
		<g>
			<path class="st0" d="M19.5,28c-4.3,0-7.8-3.5-7.8-7.8c0-4.3,3.5-7.8,7.8-7.8v1c-3.4,0-6.3,2.6-6.7,5.9c1.2-0.5,3-0.8,4.6,0.5
				c1.9,1.6,4.1,0,4.2,0c1-0.8,3.4-1.7,5.5,0l0.2,0.1v0.2C27.3,24.5,23.8,28,19.5,28z M12.8,20.5c0.1,3.6,3.1,6.5,6.8,6.5
				c3.6,0,6.6-2.9,6.8-6.5c-1.9-1.4-3.9,0.1-4,0.2c-1,0.8-3.4,1.7-5.5,0C15.1,19.2,13.4,20.1,12.8,20.5z"/>
		</g>
		<g>
			<path class="st0" d="M27.9,13.5c-1.2-0.3-2.1-1.2-2.4-2.4c0-0.1-0.2-0.1-0.2,0c-0.3,1.2-1.2,2.1-2.4,2.4c-0.1,0-0.1,0.2,0,0.2
				c1.2,0.3,2.1,1.2,2.4,2.4c0,0.1,0.2,0.1,0.2,0c0.3-1.2,1.2-2.1,2.4-2.4C28,13.7,28,13.5,27.9,13.5z"/>
		</g>
		<g>
			<path class="st0" d="M30.4,9.7c-0.6-0.2-1.1-0.7-1.3-1.3c0-0.1-0.1-0.1-0.1,0c-0.2,0.6-0.7,1.1-1.3,1.3c-0.1,0-0.1,0.1,0,0.1
				c0.6,0.2,1.1,0.7,1.3,1.3c0,0.1,0.1,0.1,0.1,0C29.2,10.4,29.7,9.9,30.4,9.7C30.4,9.8,30.4,9.7,30.4,9.7z"/>
		</g>
	</g>
	<g>
		<path class="st0" d="M20,39.5C9.3,39.5,0.5,30.7,0.5,20S9.3,0.5,20,0.5c10.7,0,19.5,8.7,19.5,19.5S30.7,39.5,20,39.5z M20,1.5
			C9.8,1.5,1.5,9.8,1.5,20S9.8,38.5,20,38.5S38.5,30.2,38.5,20S30.2,1.5,20,1.5z"/>
	</g>
</g>
</svg>
