<?xml version="1.0" encoding="utf-8"?>
<!-- Generator: Adobe Illustrator 25.2.3, SVG Export Plug-In . SVG Version: 6.00 Build 0)  -->
<svg version="1.1" id="Layer_1" xmlns="http://www.w3.org/2000/svg" xmlns:xlink="http://www.w3.org/1999/xlink" x="0px" y="0px"
	 viewBox="0 0 40 40" style="enable-background:new 0 0 40 40;" xml:space="preserve">
<style type="text/css">
	.st0{fill:#DA0F47;}
</style>
<g>
	<g>
		<path class="st0" d="M20,39.5C9.3,39.5,0.5,30.7,0.5,20S9.3,0.5,20,0.5S39.5,9.3,39.5,20S30.7,39.5,20,39.5z M20,1.5
			C9.8,1.5,1.5,9.8,1.5,20S9.8,38.5,20,38.5S38.5,30.2,38.5,20S30.2,1.5,20,1.5z"/>
	</g>
	<g>
		<path class="st0" d="M25.7,14.5c-0.3,0-0.5,0.1-0.7,0.2l-5-3.3l-6.2,4.1v7c-0.5,0.2-0.8,0.7-0.8,1.2c0,0.7,0.6,1.3,1.3,1.3
			c0.7,0,1.3-0.6,1.3-1.3c0-0.6-0.3-1-0.8-1.2v-6.4l5.2-3.4l4.4,2.9c0,0.1-0.1,0.2-0.1,0.3c0,0.6,0.3,1,0.8,1.2v6.2h-6.4V19h2.5v3h1
			v-4h-4.5v6.2h8.4v-7.2c0.5-0.2,0.8-0.7,0.8-1.2C27,15.1,26.4,14.5,25.7,14.5z M14.3,24.2c-0.3,0-0.5-0.2-0.5-0.5
			c0-0.3,0.2-0.5,0.5-0.5c0.3,0,0.5,0.2,0.5,0.5C14.8,24,14.6,24.2,14.3,24.2z M26.2,15.8c0,0.3-0.2,0.5-0.5,0.5
			c-0.3,0-0.5-0.2-0.5-0.5c0-0.3,0.2-0.5,0.5-0.5C26,15.3,26.2,15.5,26.2,15.8z"/>
		<g>
			<circle class="st0" cx="30.7" cy="19.6" r="0.5"/>
		</g>
		<g>
			<circle class="st0" cx="28.6" cy="19.6" r="0.5"/>
		</g>
		<g>
			<path class="st0" d="M32.7,21.7L32,21c0.4-0.4,0.6-0.8,0.6-1.3s-0.2-1-0.6-1.3l0.7-0.7c0.5,0.5,0.8,1.3,0.8,2
				C33.6,20.4,33.3,21.1,32.7,21.7z"/>
		</g>
		<g>
			<path class="st0" d="M34.7,22.9L34,22.2c1.4-1.4,1.4-3.8,0-5.2l0.7-0.7C36.5,18.1,36.5,21.1,34.7,22.9z"/>
		</g>
		<g>
			<circle class="st0" cx="9.3" cy="19.6" r="0.5"/>
		</g>
		<g>
			<circle class="st0" cx="11.4" cy="19.6" r="0.5"/>
		</g>
		<g>
			<path class="st0" d="M7.3,21.7c-0.5-0.5-0.8-1.3-0.8-2c0-0.8,0.3-1.5,0.8-2L8,18.3c-0.4,0.4-0.6,0.8-0.6,1.3s0.2,1,0.6,1.3
				L7.3,21.7z"/>
		</g>
		<g>
			<path class="st0" d="M5.3,22.9c-1.8-1.8-1.8-4.8,0-6.6L6,17c-1.4,1.4-1.4,3.8,0,5.2L5.3,22.9z"/>
		</g>
	</g>
</g>
</svg>
