<?xml version="1.0" encoding="utf-8"?>
<!-- Generator: Adobe Illustrator 25.2.3, SVG Export Plug-In . SVG Version: 6.00 Build 0)  -->
<svg version="1.1" id="Layer_1" xmlns="http://www.w3.org/2000/svg" xmlns:xlink="http://www.w3.org/1999/xlink" x="0px" y="0px"
	 viewBox="0 0 40 40" style="enable-background:new 0 0 40 40;" xml:space="preserve">
<style type="text/css">
	.st0{fill:#DA0F47;}
</style>
<g>
	<g>
		<line class="st0" x1="7.2" y1="29" x2="32.8" y2="29"/>
		<rect x="7.2" y="28.5" class="st0" width="25.6" height="1"/>
	</g>
	<g>
		<g>
			<rect x="11.5" y="19.2" class="st0" width="2" height="9.7"/>
		</g>
		<g>
			<rect x="16.5" y="9.1" class="st0" width="2" height="19.9"/>
		</g>
		<g>
			<rect x="21.5" y="14.9" class="st0" width="2" height="14"/>
		</g>
		<g>
			<rect x="26.4" y="10.7" class="st0" width="2" height="18.3"/>
		</g>
	</g>
	<g>
		<path class="st0" d="M20,39.5C9.3,39.5,0.5,30.7,0.5,20S9.3,0.5,20,0.5S39.5,9.3,39.5,20S30.7,39.5,20,39.5z M20,1.5
			C9.8,1.5,1.5,9.8,1.5,20S9.8,38.5,20,38.5c10.2,0,18.5-8.3,18.5-18.5S30.2,1.5,20,1.5z"/>
	</g>
</g>
</svg>
