<?xml version="1.0" encoding="utf-8"?>
<!-- Generator: Adobe Illustrator 25.2.3, SVG Export Plug-In . SVG Version: 6.00 Build 0)  -->
<svg version="1.1" id="Layer_1" xmlns="http://www.w3.org/2000/svg" xmlns:xlink="http://www.w3.org/1999/xlink" x="0px" y="0px"
	 viewBox="0 0 58 58" style="enable-background:new 0 0 58 58;" xml:space="preserve">
<style type="text/css">
	.st0{fill:#FFFFFF;}
	.st1{fill:none;}
</style>
<g>
	<g>
		<path class="st0" d="M38.33,26.68l3.27,18H16.4l3.27-18H38.33 M40,24.68H18l-4,22h30L40,24.68L40,24.68z"/>
	</g>
	<g>
		<line class="st1" x1="29" y1="20.68" x2="29" y2="24.65"/>
		<rect x="28" y="20.68" class="st0" width="2" height="3.98"/>
	</g>
	<g>
		<path class="st0" d="M29,30.68c2.76,0,5,2.24,5,5s-2.24,5-5,5s-5-2.24-5-5C24,32.92,26.24,30.68,29,30.68 M29,28.68
			c-3.87,0-7,3.13-7,7s3.13,7,7,7s7-3.13,7-7S32.87,28.68,29,28.68L29,28.68z"/>
	</g>
	<g>
		<line class="st1" x1="29" y1="35.68" x2="31.8" y2="32.88"/>
		
			<rect x="28.42" y="33.27" transform="matrix(0.7071 -0.7071 0.7071 0.7071 -15.3314 31.5327)" class="st0" width="3.96" height="2"/>
	</g>
	<g>
		<polygon class="st0" points="44,21.18 14,21.18 14,16.68 16,16.68 16,19.18 42,19.18 42,16.68 44,16.68 		"/>
	</g>
	<g>
		<path class="st0" d="M18.08,15.83c1.93-1.84,3.2-3.1,3.2-4.17c0-0.73-0.4-1.17-1.11-1.17c-0.54,0-0.98,0.36-1.36,0.77l-0.8-0.8
			c0.68-0.73,1.34-1.13,2.35-1.13c1.4,0,2.33,0.89,2.33,2.25c0,1.26-1.16,2.56-2.48,3.94c0.37-0.04,0.86-0.08,1.21-0.08h1.62v1.24
			h-4.96C18.08,16.68,18.08,15.83,18.08,15.83z"/>
		<path class="st0" d="M26.71,14.89h-3.16v-1.01l2.76-4.41h1.77v4.29h0.87v1.13h-0.87v1.79h-1.37V14.89z M26.71,13.76v-1.44
			c0-0.43,0.03-1.11,0.05-1.54h-0.04c-0.18,0.39-0.38,0.76-0.59,1.16l-1.15,1.82C24.98,13.76,26.71,13.76,26.71,13.76z"/>
		<path class="st0" d="M31.73,10.29h1.16v3.83h0.03l1.53-1.93h1.29l-1.54,1.85l1.68,2.63h-1.27l-1.09-1.86l-0.63,0.72v1.14h-1.16
			C31.73,16.67,31.73,10.29,31.73,10.29z"/>
		<path class="st0" d="M36.02,17.47c0-0.38,0.23-0.7,0.64-0.93V16.5c-0.23-0.15-0.41-0.38-0.41-0.75c0-0.34,0.23-0.65,0.5-0.84
			v-0.03c-0.31-0.22-0.6-0.65-0.6-1.18c0-1.05,0.86-1.62,1.81-1.62c0.25,0,0.49,0.05,0.67,0.11h1.62v0.86h-0.76
			c0.11,0.15,0.2,0.4,0.2,0.68c0,1.01-0.77,1.52-1.73,1.52c-0.18,0-0.38-0.04-0.58-0.1c-0.12,0.1-0.19,0.2-0.19,0.38
			c0,0.24,0.18,0.37,0.7,0.37h0.76c1.08,0,1.67,0.34,1.67,1.12c0,0.9-0.94,1.59-2.44,1.59C36.83,18.62,36.02,18.26,36.02,17.47z
			 M39.2,17.23c0-0.32-0.26-0.4-0.74-0.4h-0.54c-0.27,0-0.46-0.02-0.62-0.06c-0.21,0.15-0.3,0.33-0.3,0.51
			c0,0.38,0.42,0.59,1.06,0.59C38.74,17.87,39.2,17.58,39.2,17.23z M38.67,13.7c0-0.52-0.3-0.82-0.7-0.82s-0.7,0.3-0.7,0.82
			c0,0.54,0.31,0.83,0.7,0.83C38.35,14.53,38.67,14.24,38.67,13.7z"/>
	</g>
</g>
</svg>
