<?xml version="1.0" encoding="utf-8"?>
<!-- Generator: Adobe Illustrator 25.2.3, SVG Export Plug-In . SVG Version: 6.00 Build 0)  -->
<svg version="1.1" id="Layer_1" xmlns="http://www.w3.org/2000/svg" xmlns:xlink="http://www.w3.org/1999/xlink" x="0px" y="0px"
	 viewBox="0 0 58 58" style="enable-background:new 0 0 58 58;" xml:space="preserve">
<style type="text/css">
	.st0{fill:#333333;}
</style>
<g>
	<g>
		<rect x="20" y="12.89" class="st0" width="2" height="8"/>
	</g>
	<g>
		<rect x="36" y="12.89" class="st0" width="2" height="8"/>
	</g>
	<g>
		<path class="st0" d="M36.57,21.43c0.64,1.74,1.85,4.14,4.02,5.84l1.28,19.62H29H16.14l1.28-19.62c2.17-1.7,3.38-4.1,4.02-5.84
			c1.59,0.39,4.05,0.78,7.57,0.78S34.98,21.82,36.57,21.43 M37.91,18.89c0,0-2.6,1.33-8.91,1.33s-8.91-1.33-8.91-1.33
			s-0.89,5.01-4.6,7.3L14,48.89h15h15l-1.48-22.7C38.8,23.9,37.91,18.89,37.91,18.89L37.91,18.89z"/>
	</g>
</g>
</svg>
