<?xml version="1.0" encoding="utf-8"?>
<!-- Generator: Adobe Illustrator 25.2.3, SVG Export Plug-In . SVG Version: 6.00 Build 0)  -->
<svg version="1.1" id="Layer_1" xmlns="http://www.w3.org/2000/svg" xmlns:xlink="http://www.w3.org/1999/xlink" x="0px" y="0px"
	 viewBox="0 0 58 58" style="enable-background:new 0 0 58 58;" xml:space="preserve">
<style type="text/css">
	.st0{fill:#FFFFFF;}
</style>
<g>
	<path class="st0" d="M23.21,47.41h-2v-3.35H15.8c-1.58,0-2.87-1.29-2.87-2.87v-4.94h-1.34c-0.81,0-1.55-0.4-2-1.07
		c-0.44-0.67-0.52-1.52-0.2-2.26l0.05-0.1l4.11-7.31c0.33-3.55,2.38-13.9,14.87-13.9c11.53,0,13.87,10.85,13.89,10.96l-1.96,0.4
		c-0.08-0.38-2.06-9.37-11.93-9.37c-10.75,0-12.6,8.59-12.9,12.29l-0.02,0.22l-4.28,7.63c-0.05,0.15,0.01,0.27,0.05,0.33
		c0.04,0.07,0.14,0.17,0.33,0.17h3.34v6.94c0,0.48,0.39,0.87,0.87,0.87h5.58c1,0,1.82,0.82,1.82,1.82V47.41z"/>
</g>
<g>
	<path class="st0" d="M40.1,46.91h-7.54v-2h7.43c0.61-0.09,6.45-1.11,6.45-9.15c0-8.26-6.84-8.74-7.13-8.76l-5.75,0v13.44h5.8
		c0.09,0,1.09,0.03,1.94-0.78c0.84-0.81,1.26-2.17,1.26-4.06c0-0.05,0.05-2.54-1.21-3.83C40.85,31.25,40.2,31,39.36,31v-2
		c1.39,0,2.54,0.46,3.43,1.38c1.85,1.91,1.77,5.11,1.77,5.25c0,2.45-0.64,4.31-1.92,5.51c-1.48,1.4-3.27,1.31-3.35,1.3l-7.74,0V25
		h7.8c0.14,0.01,9.08,0.56,9.08,10.76c0,10.14-8.2,11.14-8.29,11.14L40.1,46.91z"/>
</g>
<g>
	<polygon class="st0" points="29.32,42.46 27.32,42.46 27.32,29.22 32.56,29.22 32.56,31.22 29.32,31.22 	"/>
</g>
<g>
	<path class="st0" d="M28.32,47.59c-1.58,0-2.86-1.28-2.86-2.86s1.28-2.86,2.86-2.86c1.58,0,2.86,1.28,2.86,2.86
		S29.9,47.59,28.32,47.59z M28.32,43.87c-0.47,0-0.86,0.38-0.86,0.86s0.38,0.86,0.86,0.86s0.86-0.39,0.86-0.86
		S28.79,43.87,28.32,43.87z"/>
</g>
<g>
	<rect x="35.84" y="29" class="st0" width="3.52" height="2"/>
</g>
</svg>
