<?xml version="1.0" encoding="utf-8"?>
<!-- Generator: Adobe Illustrator 25.2.3, SVG Export Plug-In . SVG Version: 6.00 Build 0)  -->
<svg version="1.1" id="Layer_1" xmlns="http://www.w3.org/2000/svg" xmlns:xlink="http://www.w3.org/1999/xlink" x="0px" y="0px"
	 viewBox="0 0 58 58" style="enable-background:new 0 0 58 58;" xml:space="preserve">
<style type="text/css">
	.st0{fill:#FFFFFF;}
</style>
<g>
	<g id="Shape_10">
		<g>
			<path class="st0" d="M49.58,33.91c0,0-3.58,9.17-11.09,11.79c0,0-3.09,3.16-4.38,3.59c0,0,12.06-1.79,16.24-15.37H49.58z"/>
		</g>
	</g>
	<g id="Shape_9">
		<g>
			<polygon class="st0" points="50.1,32.11 48.29,34.16 51.39,34.16 			"/>
		</g>
	</g>
	<g id="Shape_5">
		<g>
			<polygon class="st0" points="37.98,37.75 39.53,40.57 42.36,38.78 			"/>
		</g>
	</g>
	<g id="Shape_6">
		<g>
			<path class="st0" d="M47.52,22.89c-5.5,0.13-8.51,15.37-8.51,15.37l2.06,0.26c2.31-10.69,4.77-13.6,6.96-14.09
				s3.09,4.36,3.09,4.36S50.91,22.81,47.52,22.89z"/>
		</g>
	</g>
	<g id="Shape_2">
		<g>
			<path class="st0" d="M10.39,24.94c0,0,0.73-1.22,2.06-0.26l1.46,1.25l-0.69,0.55l2.32,0.51l0.26-2.56L15.09,25
				c-0.65-0.62-2.78-2.49-4.18-2.11c-1.66,0.45-3.1,0.85-3.61,6.41c-0.65,7.03,4.36,15.27,6.45,16.14l2.58-2.56
				C16.32,42.88,6.3,34.82,10.39,24.94z"/>
		</g>
	</g>
	<g id="Shape_7">
		<g>
			<polygon class="st0" points="16.84,45.69 17.35,49.79 20.71,44.16 			"/>
		</g>
	</g>
	<g id="Shape_8">
		<g>
			<path class="st0" d="M38.24,41.34c0,0-6.25,11.12-18.3,3.84l-1.8,3.33c0,0,15.49,5.24,21.66-6.66L38.24,41.34z"/>
		</g>
	</g>
	<g id="Shape_3">
		<g>
			<polygon class="st0" points="33.73,37.86 32.97,43.72 35.77,41.57 			"/>
		</g>
	</g>
	<g id="Shape_4">
		<g>
			<path class="st0" d="M16.32,28.53c0,0,1.38,11.53,17.53,13.84l0.26-2.31C34.11,40.06,22.63,40.67,16.32,28.53z"/>
		</g>
	</g>
</g>
</svg>
