<?xml version="1.0" encoding="utf-8"?>
<!-- Generator: Adobe Illustrator 25.2.3, SVG Export Plug-In . SVG Version: 6.00 Build 0)  -->
<svg version="1.1" id="Layer_1" xmlns="http://www.w3.org/2000/svg" xmlns:xlink="http://www.w3.org/1999/xlink" x="0px" y="0px"
	 viewBox="0 0 90 90" style="enable-background:new 0 0 90 90" xml:space="preserve">
<style type="text/css">
	.st0{fill:#FFFFFF;}
</style>
<g>
	<path class="st0" d="M63.02,32.39c-1.4,0-2.6,0.5-3.6,1.3l-11.6-7.7c-1-0.7-2.3-0.7-3.2,0l-15.6,10.3c-0.8,0.6-1.3,1.5-1.3,2.4
		v14.5c-2.4,0.8-4.1,2.9-4.1,5.6c0,3.2,2.6,5.8,5.8,5.8s5.9-2.6,5.9-5.8c0-2.6-1.7-4.8-4.1-5.6v-14.2l15.1-9.9l11.3,7.4
		c-0.2,0.5-0.3,1.1-0.3,1.7c0,2.6,1.7,4.8,4.1,5.6v16.1h-18.5v-12h6.9v8.5h3.5v-9c0-1.6-1.3-2.9-2.9-2.9h-8c-1.6,0-2.9,1.3-2.9,2.9
		v13.1c0,1.6,1.3,2.9,2.9,2.9h19.6c1.6,0,2.9-1.3,2.9-2.9v-16.7c2.4-0.8,4.1-2.9,4.1-5.6C68.82,34.99,66.22,32.39,63.02,32.39z
		 M31.72,58.79c0,0.6-0.2,1.1-0.6,1.5c-0.4,0.5-1,0.8-1.8,0.8s-1.3-0.3-1.8-0.8c-0.4-0.4-0.6-0.9-0.6-1.5s0.2-1.1,0.6-1.5
		c0.4-0.5,1-0.8,1.8-0.8s1.3,0.3,1.8,0.8C31.52,57.69,31.72,58.29,31.72,58.79z M64.82,39.79c-0.4,0.5-1,0.8-1.8,0.8
		s-1.3-0.3-1.8-0.8c-0.3-0.3-0.5-0.7-0.5-1.1c0-0.1,0-0.3,0-0.5c0-1.2,1-2.2,2.2-2.3c0,0,0.1,0,0.2,0c1.3,0,2.3,1.1,2.3,2.3
		C65.32,38.79,65.12,39.39,64.82,39.79z"/>
</g>
</svg>
