<?xml version="1.0" encoding="utf-8"?>
<!-- Generator: Adobe Illustrator 25.2.3, SVG Export Plug-In . SVG Version: 6.00 Build 0)  -->
<svg version="1.1" id="Layer_1" xmlns="http://www.w3.org/2000/svg" xmlns:xlink="http://www.w3.org/1999/xlink" x="0px" y="0px"
	 viewBox="0 0 40 40" style="enable-background:new 0 0 40 40;" xml:space="preserve">
<style type="text/css">
	.st0{fill:none;stroke:#da0f47;stroke-miterlimit:10;}
	.st1{fill:#da0f47;}
	.st2{fill:#FFFFFF;}
</style>
<g>
	<circle class="st0" cx="19.96" cy="19.96" r="18.96"/>
	<g>
		<polyline class="st0" points="14.3,24.27 14.3,15.74 19.98,11.99 25.66,15.74 25.66,23.68 18.23,23.68 18.23,18.46 21.74,18.46 
			21.74,21.91 		"/>
		<g>
			<circle class="st1" cx="14.3" cy="23.68" r="1.33"/>
		</g>
		<g>
			<circle class="st1" cx="25.66" cy="15.78" r="1.33"/>
		</g>
		<g>
			<circle class="st2" cx="25.66" cy="15.78" r="0.5"/>
		</g>
		<g>
			<circle class="st2" cx="14.3" cy="23.68" r="0.5"/>
		</g>
		<g>
			<circle class="st1" cx="30.65" cy="19.58" r="0.5"/>
		</g>
		<g>
			<circle class="st1" cx="28.51" cy="19.58" r="0.5"/>
		</g>
		<path class="st0" d="M32.34,21.26c0.93-0.93,0.93-2.44,0-3.37"/>
		<path class="st0" d="M34.3,22.53c1.63-1.63,1.63-4.27,0-5.89"/>
		<g>
			<circle class="st1" cx="9.27" cy="19.58" r="0.5"/>
		</g>
		<g>
			<circle class="st1" cx="11.41" cy="19.58" r="0.5"/>
		</g>
		<path class="st0" d="M7.58,21.26c-0.93-0.93-0.93-2.44,0-3.37"/>
		<path class="st0" d="M5.61,22.53c-1.63-1.63-1.63-4.27,0-5.89"/>
	</g>
</g>
</svg>
