<?xml version="1.0" encoding="utf-8"?>
<!-- Generator: Adobe Illustrator 25.2.3, SVG Export Plug-In . SVG Version: 6.00 Build 0)  -->
<svg version="1.1" id="Layer_1" xmlns="http://www.w3.org/2000/svg" xmlns:xlink="http://www.w3.org/1999/xlink" x="0px" y="0px"
	 viewBox="0 0 40 40" style="enable-background:new 0 0 40 40;" xml:space="preserve">
<style type="text/css">
	.st0{fill:none;stroke:#DA0F47;stroke-miterlimit:10;}
	.st1{fill:#DA0F47;}
</style>
<g>
	<path class="st0" d="M30.02,16.79c0.34,1.07,0.53,2.21,0.53,3.4c0,6.13-4.97,11.09-11.09,11.09S8.37,26.31,8.37,20.19
		s4.96-11.1,11.09-11.1c0.85,0,1.68,0.1,2.48,0.28"/>
	<path class="st0" d="M12.2,20.19c0,0,2.57-1.93,4.84,0s4.84,0,4.84,0s2.57-1.93,4.84,0c0,4.01-3.25,7.26-7.26,7.26
		S12.2,24.2,12.2,20.19s3.25-7.26,7.26-7.26"/>
	<path class="st1" d="M27.9,13.46c-1.16-0.28-2.08-1.2-2.36-2.36c-0.02-0.09-0.16-0.09-0.18,0c-0.28,1.16-1.2,2.08-2.36,2.36
		c-0.09,0.02-0.09,0.16,0,0.18c1.16,0.28,2.08,1.2,2.36,2.36c0.02,0.09,0.16,0.09,0.18,0c0.28-1.16,1.2-2.08,2.36-2.36
		C27.99,13.61,27.99,13.48,27.9,13.46z"/>
	<path class="st1" d="M30.33,9.63c-0.64-0.16-1.14-0.66-1.3-1.3c-0.01-0.05-0.09-0.05-0.1,0c-0.16,0.64-0.66,1.14-1.3,1.3
		c-0.05,0.01-0.05,0.09,0,0.1c0.64,0.16,1.14,0.66,1.3,1.3c0.01,0.05,0.09,0.05,0.1,0c0.16-0.64,0.66-1.14,1.3-1.3
		C30.38,9.71,30.38,9.64,30.33,9.63z"/>
</g>
<circle class="st0" cx="19.96" cy="19.96" r="18.96"/>
</svg>
