<?xml version="1.0" encoding="utf-8"?>
<!-- Generator: Adobe Illustrator 25.2.3, SVG Export Plug-In . SVG Version: 6.00 Build 0)  -->
<svg version="1.1" id="Layer_1" xmlns="http://www.w3.org/2000/svg" xmlns:xlink="http://www.w3.org/1999/xlink" x="0px" y="0px"
	 viewBox="0 0 58 58" style="enable-background:new 0 0 58 58;" xml:space="preserve">
<style type="text/css">
	.st0{fill:#FFFFFF;}
</style>
<g>
	<g>
		<g>
			<polygon class="st0" points="41.33,28.46 43.12,26.4 43.45,28.51 43.79,30.61 41.66,30.56 39.53,30.51 			"/>
		</g>
		<g>
			<polygon class="st0" points="33.38,48.35 32.83,51.02 31.5,49.35 30.18,47.68 32.06,46.68 33.94,45.68 			"/>
		</g>
		<path class="st0" d="M25.7,37.72c0-5.42,4.39-9.82,9.82-9.82c2.5,0,4.78,0.94,6.51,2.48l1.45-1.64c-2.12-1.88-4.91-3.03-7.96-3.03
			c-6.63,0-12,5.37-12,12c0,3.74,1.71,7.07,4.39,9.27l1.38-1.69C27.1,43.51,25.7,40.78,25.7,37.72z"/>
		<path class="st0" d="M45.7,31.37l-1.86,1.16c0.94,1.51,1.5,3.28,1.5,5.19c0,5.42-4.39,9.82-9.82,9.82c-1.08,0-2.12-0.18-3.1-0.51
			l-0.69,2.07c1.19,0.4,2.47,0.61,3.79,0.61c6.63,0,12-5.37,12-12C47.52,35.39,46.85,33.21,45.7,31.37z"/>
	</g>
	<g>
		<polygon class="st0" points="28.24,22.1 30.03,20.04 30.37,22.14 30.7,24.25 28.57,24.2 26.45,24.15 		"/>
	</g>
	<g>
		<polygon class="st0" points="14.71,39.09 12.76,40.99 12.59,38.87 12.42,36.75 14.54,36.97 16.66,37.19 		"/>
	</g>
	<path class="st0" d="M22.43,21.54c2.5,0,4.78,0.94,6.51,2.48l1.45-1.64c-2.12-1.88-4.91-3.03-7.96-3.03c-6.63,0-12,5.37-12,12
		c0,1.27,0.2,2.49,0.57,3.64l2.08-0.66c-0.3-0.94-0.46-1.94-0.46-2.97C12.62,25.94,17.01,21.54,22.43,21.54z"/>
	<g>
		<polygon class="st0" points="13.06,13.83 11.58,11.54 13.69,11.8 15.81,12.06 15.17,14.09 14.53,16.13 		"/>
	</g>
	<path class="st0" d="M12.45,27.82c-1.82-2.39-2.53-5.57-1.64-8.67c0.69-2.4,2.23-4.33,4.19-5.57l-1.17-1.85
		c-2.4,1.51-4.27,3.88-5.12,6.81c-1.23,4.25,0.01,8.63,2.86,11.62L12.45,27.82z"/>
	<path class="st0" d="M34.43,31.77l-2.19-0.08c-0.06,1.78-0.59,3.56-1.66,5.14c-3.03,4.5-9.13,5.69-13.62,2.66
		c-0.9-0.61-1.66-1.34-2.29-2.15l-1.73,1.33c0.77,0.99,1.7,1.89,2.8,2.63c5.5,3.7,12.95,2.24,16.65-3.25
		C33.7,36.12,34.36,33.94,34.43,31.77z"/>
</g>
</svg>
