<?xml version="1.0" encoding="utf-8"?>
<!-- Generator: Adobe Illustrator 25.2.3, SVG Export Plug-In . SVG Version: 6.00 Build 0)  -->
<svg version="1.1" id="Layer_1" xmlns="http://www.w3.org/2000/svg" xmlns:xlink="http://www.w3.org/1999/xlink" x="0px" y="0px"
	 viewBox="0 0 58 58" style="enable-background:new 0 0 58 58;" xml:space="preserve">
<style type="text/css">
	.st0{fill:#FFFFFF;}
</style>
<g>
	<g id="모양_9">
		<g>
			<path class="st0" d="M46.68,24.9l-2.86,2.86h1.43c0,0,0.2,5.81-3.33,9.04c-3.54,3.23-9.32,0.47-11.42-2.85l-0.95,0.95
				c0,0,3.25,5.23,9.04,5.23s9.2-5.56,9.52-12.37h1.43L46.68,24.9z"/>
		</g>
	</g>
	<g id="모양_8">
		<g>
			<path class="st0" d="M41.45,18.24c-5.5,0.08-9.7,4.93-12.85,13.32s-13.87,6.86-14.75,3.81l0.95-0.48l-3.81-1.43l-0.48,3.81
				l0.95-0.48c0,0,3.27,2.86,7.61,2.86s8.31-2.32,10.94-8.09c2.64-5.77,3.59-7.58,7.14-9.52c3.55-1.94,6.9-0.89,8.57,1.43h3.33
				C49.06,23.48,46.95,18.17,41.45,18.24z"/>
		</g>
	</g>
	<g id="모양_7">
		<g>
			<path class="st0" d="M27.65,30.61l-0.48-4.76l-0.95,0.95c0,0-5.32-7.15-9.52-8.57c-4.19-1.41-7.75,1.26-8.09,7.14s0,7.14,0,7.14
				l3.33-0.95c0,0-0.95-5.48,0-9.04c0.95-3.56,4.21-3.95,6.66-1.9c2.45,2.05,6.66,6.66,6.66,6.66l-0.95,0.95L27.65,30.61z"/>
		</g>
	</g>
</g>
</svg>
