<?xml version="1.0" encoding="utf-8"?>
<!-- Generator: Adobe Illustrator 25.2.3, SVG Export Plug-In . SVG Version: 6.00 Build 0)  -->
<svg version="1.1" id="Layer_1" xmlns="http://www.w3.org/2000/svg" xmlns:xlink="http://www.w3.org/1999/xlink" x="0px" y="0px"
	 viewBox="0 0 40 40" style="enable-background:new 0 0 40 40;" xml:space="preserve">
<style type="text/css">
	.st0{fill:#DA0F47;}
</style>
<g>
	<g>
		<path class="st0" d="M20,27.4L12.3,19h4.4V8.8h6.7V19h4.4L20,27.4z M14.6,20l5.4,5.9l5.4-5.9h-3.1V9.8h-4.7V20H14.6z"/>
	</g>
	<g>
		<rect x="11.7" y="30.2" class="st0" width="16.6" height="1"/>
	</g>
	<g>
		<path class="st0" d="M20,39.5C9.3,39.5,0.5,30.7,0.5,20S9.3,0.5,20,0.5S39.5,9.3,39.5,20S30.7,39.5,20,39.5z M20,1.5
			C9.8,1.5,1.5,9.8,1.5,20S9.8,38.5,20,38.5S38.5,30.2,38.5,20S30.2,1.5,20,1.5z"/>
	</g>
</g>
</svg>
