<?xml version="1.0" encoding="utf-8"?>
<!-- Generator: Adobe Illustrator 25.2.3, SVG Export Plug-In . SVG Version: 6.00 Build 0)  -->
<svg version="1.1" id="Layer_1" xmlns="http://www.w3.org/2000/svg" xmlns:xlink="http://www.w3.org/1999/xlink" x="0px" y="0px"
	 viewBox="0 0 58 58" style="enable-background:new 0 0 58 58;" xml:space="preserve">
<style type="text/css">
	.st0{fill:#FFFFFF;}
</style>
<g>
	<g id="모양_5">
		<g>
			<polygon class="st0" points="29.25,7.73 26.32,11.14 27.78,11.14 27.78,14.56 30.71,14.56 30.71,11.14 32.17,11.14 			"/>
		</g>
	</g>
	<g id="모양_5_복사">
		<g>
			<polygon class="st0" points="30.69,46.92 30.69,43.57 27.8,43.57 27.8,46.92 26.36,46.92 29.25,50.27 32.13,46.92 			"/>
		</g>
	</g>
	<g id="모양_5_복사_3">
		<g>
			<polygon class="st0" points="50.32,29.19 46.9,26.3 46.9,27.74 43.48,27.74 43.48,30.63 46.9,30.63 46.9,32.07 			"/>
		</g>
	</g>
	<g id="모양_5_복사_3_1_">
		<g>
			<polygon class="st0" points="11.04,27.76 11.04,26.34 7.68,29.19 11.04,32.04 11.04,30.61 14.4,30.61 14.4,27.76 			"/>
		</g>
	</g>
	<g id="모양_5_복사_4">
		<g>
			<polygon class="st0" points="44.12,44.21 43.73,39.75 42.72,40.78 40.29,38.37 38.25,40.41 40.68,42.83 39.66,43.85 			"/>
		</g>
	</g>
	<g id="모양_5_복사_4_1_">
		<g>
			<polygon class="st0" points="17.26,15.51 18.27,14.5 13.88,14.15 14.25,18.54 15.26,17.53 17.64,19.9 19.65,17.88 			"/>
		</g>
	</g>
	<g id="모양_5_복사_2">
		<g>
			<polygon class="st0" points="39.22,13.9 40.3,14.9 37.98,17.4 40.13,19.39 42.44,16.88 43.52,17.88 43.69,13.38 			"/>
		</g>
	</g>
	<g id="모양_5_복사_2_1_">
		<g>
			<polygon class="st0" points="20.41,40.67 18.29,38.71 16.02,41.17 14.96,40.19 14.8,44.61 19.2,44.11 18.14,43.13 			"/>
		</g>
	</g>
	<g id="타원_1">
		<g>
			<path class="st0" d="M28.76,19.92v2.53c0.01,0,0.01,0,0.02,0c3.17,0,5.75,2.57,5.75,5.75c0,3.17-2.57,5.75-5.75,5.75
				c-2.54,0-4.69-1.65-5.45-3.94l-2.56,0.38c0.96,3.52,4.17,6.12,7.99,6.12c4.58,0,8.29-3.71,8.29-8.29S33.34,19.92,28.76,19.92z"/>
		</g>
	</g>
	<g id="모양_6">
		<g>
			<polygon class="st0" points="20.96,27.24 19.49,31.63 25.35,29.67 			"/>
		</g>
	</g>
</g>
</svg>
