<?xml version="1.0" encoding="utf-8"?>
<!-- Generator: Adobe Illustrator 25.2.3, SVG Export Plug-In . SVG Version: 6.00 Build 0)  -->
<svg version="1.1" id="Layer_1" xmlns="http://www.w3.org/2000/svg" xmlns:xlink="http://www.w3.org/1999/xlink" x="0px" y="0px"
	 viewBox="0 0 58 58" style="enable-background:new 0 0 58 58;" xml:space="preserve">
<style type="text/css">
	.st0{fill:#FFFFFF;}
</style>
<g>
	<g id="모양_4">
		<g>
			<path class="st0" d="M32.32,47.93l-4.2-1.57v1.05c0,0-3.09,0.6-8.92-1.57S15,36.39,15,36.39l-2.62-1.57
				c0.9,6.27,2.38,9.55,5.77,11.54c3.39,1.99,9.97,2.62,9.97,2.62v1.05L32.32,47.93z"/>
		</g>
	</g>
	<g id="모양_1">
		<g>
			<path class="st0" d="M29.7,16.98l-2.1-2.1c0,0-7.21,6.62-13.12,15.22l-1.05-1.05l0.52,4.72l3.67-1.05l-1.05-1.05
				C16.58,31.67,19.72,25.72,29.7,16.98z"/>
		</g>
	</g>
	<g id="모양_2">
		<g>
			<path class="st0" d="M37.04,11.2c-5.56,0-5.77,1.57-5.77,1.57l-1.57-0.52l0.52,3.15l4.72-1.05l-1.57-0.52c0,0,1.17-2.54,3.67-2.1
				c2.51,0.44,5.82,5.48,6.82,9.45l2.62-1.57C46.49,19.6,42.6,11.2,37.04,11.2z"/>
		</g>
	</g>
	<g id="모양_3">
		<g>
			<path class="st0" d="M50.68,25.37l-3.67-1.57l-2.62,3.67l1.57-0.52c0,0,2.68,13.14-10.49,19.94l1.57,1.05
				c0,0,7.28-3.23,9.97-9.97s2.1-12.07,2.1-12.07L50.68,25.37z"/>
		</g>
	</g>
</g>
</svg>
